<svg width="105" height="105" viewBox="0 0 105 105" fill="none" xmlns="http://www.w3.org/2000/svg">
<g clip-path="url(#clip0)">
<path d="M23.749 104.434L21.7703 97.049C41.6729 87.6388 56.2324 77.3818 65.4488 66.2779C74.8984 55.2315 78.424 45.2328 76.0255 36.2818C75.4559 34.1559 74.0622 32.6106 71.8443 31.6459C70.1526 31.0199 69.7943 30.5763 67.1739 31.2784C64.9396 31.8771 61.6584 39.1319 54.7424 43.3834C51.356 45.3701 47.6315 46.9077 43.569 47.9963C33.6159 50.6632 25.2592 51.1635 18.4992 49.4971C7.51303 47.7027 5.59339 40.5396 4.0644 34.8333C2.59537 29.3508 5.80112 22.4199 12.2674 16.49C18.9369 10.5057 27.756 6.04396 38.7248 3.10489C52.1311 -0.487311 64.8833 -0.426558 76.9816 3.28715C89.253 6.83454 96.8127 13.9229 99.6608 24.5523C102.749 36.0767 98.2994 48.7214 86.3127 62.4863C74.559 76.3087 53.7045 90.2911 23.749 104.434Z" fill="black"/>
</g>
<defs>
<clipPath id="clip0">
<rect width="105" height="105" fill="white"/>
</clipPath>
</defs>
</svg>
